<svg width="21" height="16" viewBox="0 0 21 16" fill="none" xmlns="http://www.w3.org/2000/svg">
<path d="M8.21145 0.0469084C8.07742 -0.0156361 7.92258 -0.0156361 7.78856 0.0469084L0.288558 3.54691C0.107914 3.63121 -0.00539504 3.81476 0.000197994 4.01403C0.005791 4.2133 0.129217 4.3902 0.314306 4.46424L7.81431 7.46424C7.93351 7.51192 8.06649 7.51192 8.1857 7.46424L14 5.13852V11C13.4477 11 13 11.4477 13 12V14H16V12C16 11.4477 15.5523 11 15 11V4.73852L15.6857 4.46424C15.8708 4.3902 15.9942 4.2133 15.9998 4.01403C16.0054 3.81476 15.8921 3.63121 15.7114 3.54691L8.21145 0.0469084ZM8 6.46148L1.75802 3.96469L8 1.05177L14.242 3.96469L8 6.46148Z" fill="#10B1F0" fill-opacity="0.5"/>
<path d="M4.17556 7.03184C4.04549 6.98306 3.90098 6.9906 3.77669 7.05264C3.6524 7.11468 3.55952 7.22564 3.52032 7.35892L3.02032 9.05891C2.94756 9.30631 3.07488 9.56846 3.31431 9.66424L7.81431 11.4642C7.93351 11.5119 8.06649 11.5119 8.1857 11.4642L12.6857 9.66424C12.9251 9.56846 13.0524 9.30631 12.9797 9.05891L12.4797 7.35892C12.4405 7.22564 12.3476 7.11468 12.2233 7.05264C12.099 6.9906 11.9545 6.98306 11.8244 7.03184L8 8.466L4.17556 7.03184ZM4.10803 8.90469L4.32795 8.15698L7.82444 9.46816C7.93763 9.51061 8.06237 9.51061 8.17556 9.46816L11.6721 8.15698L11.892 8.90469L8 10.4615L4.10803 8.90469Z" fill="#10B1F0" fill-opacity="0.5"/>
<path d="M21 15C21 15.5523 19.2091 16 17 16C14.7909 16 13 15.5523 13 15C13 14.4477 14.7909 14 17 14C19.2091 14 21 14.4477 21 15Z" fill="black" fill-opacity="0.21"/>
<g clip-path="url(#clip0_1079_531)">
<mask id="path-3-inside-1_1079_531" fill="white">
<path d="M20 7.5C20.1326 7.5 20.2598 7.55268 20.3536 7.64645C20.4473 7.74021 20.5 7.86739 20.5 8V14C20.5 14.1326 20.4473 14.2598 20.3536 14.3536C20.2598 14.4473 20.1326 14.5 20 14.5H14C13.8674 14.5 13.7402 14.4473 13.6464 14.3536C13.5527 14.2598 13.5 14.1326 13.5 14V8C13.5 7.86739 13.5527 7.74021 13.6464 7.64645C13.7402 7.55268 13.8674 7.5 14 7.5H20ZM14 7C13.7348 7 13.4804 7.10536 13.2929 7.29289C13.1054 7.48043 13 7.73478 13 8V14C13 14.2652 13.1054 14.5196 13.2929 14.7071C13.4804 14.8946 13.7348 15 14 15H20C20.2652 15 20.5196 14.8946 20.7071 14.7071C20.8946 14.5196 21 14.2652 21 14V8C21 7.73478 20.8946 7.48043 20.7071 7.29289C20.5196 7.10536 20.2652 7 20 7H14Z"/>
</mask>
<path d="M20 7.5C20.1326 7.5 20.2598 7.55268 20.3536 7.64645C20.4473 7.74021 20.5 7.86739 20.5 8V14C20.5 14.1326 20.4473 14.2598 20.3536 14.3536C20.2598 14.4473 20.1326 14.5 20 14.5H14C13.8674 14.5 13.7402 14.4473 13.6464 14.3536C13.5527 14.2598 13.5 14.1326 13.5 14V8C13.5 7.86739 13.5527 7.74021 13.6464 7.64645C13.7402 7.55268 13.8674 7.5 14 7.5H20ZM14 7C13.7348 7 13.4804 7.10536 13.2929 7.29289C13.1054 7.48043 13 7.73478 13 8V14C13 14.2652 13.1054 14.5196 13.2929 14.7071C13.4804 14.8946 13.7348 15 14 15H20C20.2652 15 20.5196 14.8946 20.7071 14.7071C20.8946 14.5196 21 14.2652 21 14V8C21 7.73478 20.8946 7.48043 20.7071 7.29289C20.5196 7.10536 20.2652 7 20 7H14Z" fill="#10B1F0"/>
<path d="M20 7.5V6.5V7.5ZM13.5 14H12.5H13.5ZM14 7.5V6.5V7.5ZM14 7V6V7ZM13 8H12H13ZM13 14H12H13ZM20 7.5V8.5C19.8674 8.5 19.7402 8.44732 19.6464 8.35355L20.3536 7.64645L21.0607 6.93934C20.7794 6.65804 20.3978 6.5 20 6.5V7.5ZM20.3536 7.64645L19.6464 8.35355C19.5527 8.25979 19.5 8.13261 19.5 8H20.5H21.5C21.5 7.60217 21.342 7.22064 21.0607 6.93934L20.3536 7.64645ZM20.5 8H19.5V14H20.5H21.5V8H20.5ZM20.5 14H19.5C19.5 13.8674 19.5527 13.7402 19.6464 13.6464L20.3536 14.3536L21.0607 15.0607C21.342 14.7794 21.5 14.3978 21.5 14H20.5ZM20.3536 14.3536L19.6464 13.6464C19.7402 13.5527 19.8674 13.5 20 13.5V14.5V15.5C20.3978 15.5 20.7794 15.342 21.0607 15.0607L20.3536 14.3536ZM20 14.5V13.5H14V14.5V15.5H20V14.5ZM14 14.5V13.5C14.1326 13.5 14.2598 13.5527 14.3536 13.6464L13.6464 14.3536L12.9393 15.0607C13.2206 15.342 13.6022 15.5 14 15.5V14.5ZM13.6464 14.3536L14.3536 13.6464C14.4473 13.7402 14.5 13.8674 14.5 14H13.5H12.5C12.5 14.3978 12.658 14.7794 12.9393 15.0607L13.6464 14.3536ZM13.5 14H14.5V8H13.5H12.5V14H13.5ZM13.5 8H14.5C14.5 8.13261 14.4473 8.25979 14.3536 8.35355L13.6464 7.64645L12.9393 6.93934C12.658 7.22064 12.5 7.60218 12.5 8H13.5ZM13.6464 7.64645L14.3536 8.35355C14.2598 8.44732 14.1326 8.5 14 8.5V7.5V6.5C13.6022 6.5 13.2206 6.65804 12.9393 6.93934L13.6464 7.64645ZM14 7.5V8.5H20V7.5V6.5H14V7.5ZM14 7V6C13.4696 6 12.9609 6.21071 12.5858 6.58579L13.2929 7.29289L14 8L14 8V7ZM13.2929 7.29289L12.5858 6.58579C12.2107 6.96086 12 7.46957 12 8L13 8L14 8L14 8L13.2929 7.29289ZM13 8H12V14H13H14V8H13ZM13 14H12C12 14.5304 12.2107 15.0391 12.5858 15.4142L13.2929 14.7071L14 14L14 14H13ZM13.2929 14.7071L12.5858 15.4142C12.9609 15.7893 13.4696 16 14 16V15V14L14 14L13.2929 14.7071ZM14 15V16H20V15V14H14V15ZM20 15V16C20.5304 16 21.0391 15.7893 21.4142 15.4142L20.7071 14.7071L20 14L20 14V15ZM20.7071 14.7071L21.4142 15.4142C21.7893 15.0391 22 14.5304 22 14H21H20L20 14L20.7071 14.7071ZM21 14H22V8H21H20V14H21ZM21 8H22C22 7.46957 21.7893 6.96086 21.4142 6.58579L20.7071 7.29289L20 8L20 8H21ZM20.7071 7.29289L21.4142 6.58579C21.0391 6.21071 20.5304 6 20 6V7V8L20 8L20.7071 7.29289ZM20 7V6H14V7V8H20V7Z" fill="#10B1F0" mask="url(#path-3-inside-1_1079_531)"/>
<path d="M17 9C17.0663 9 17.1299 9.02634 17.1768 9.07322C17.2237 9.12011 17.25 9.1837 17.25 9.25V10.75H18.75C18.8163 10.75 18.8799 10.7763 18.9268 10.8232C18.9737 10.8701 19 10.9337 19 11C19 11.0663 18.9737 11.1299 18.9268 11.1768C18.8799 11.2237 18.8163 11.25 18.75 11.25H17.25V12.75C17.25 12.8163 17.2237 12.8799 17.1768 12.9268C17.1299 12.9737 17.0663 13 17 13C16.9337 13 16.8701 12.9737 16.8232 12.9268C16.7763 12.8799 16.75 12.8163 16.75 12.75V11.25H15.25C15.1837 11.25 15.1201 11.2237 15.0732 11.1768C15.0263 11.1299 15 11.0663 15 11C15 10.9337 15.0263 10.8701 15.0732 10.8232C15.1201 10.7763 15.1837 10.75 15.25 10.75H16.75V9.25C16.75 9.1837 16.7763 9.12011 16.8232 9.07322C16.8701 9.02634 16.9337 9 17 9Z" fill="#10B1F0"/>
<path d="M17 9V13" stroke="#10B1F0" stroke-linecap="round"/>
<path d="M19.005 10.995L15.005 10.995" stroke="#10B1F0" stroke-linecap="round"/>
</g>
<defs>
<clipPath id="clip0_1079_531">
<rect width="8" height="8" fill="white" transform="translate(13 7)"/>
</clipPath>
</defs>
</svg>
