<svg width="21" height="18" viewBox="0 0 21 18" fill="none" xmlns="http://www.w3.org/2000/svg">
<path d="M14.7629 0.0746751C14.9103 0.165778 15 0.326712 15 0.500001V15.5C15 15.7761 14.7761 16 14.5 16H11.5C11.2239 16 11 15.7761 11 15.5V14H10V15.5C10 15.7761 9.77614 16 9.5 16H0.5C0.223858 16 0 15.7761 0 15.5V10C0 9.78479 0.137715 9.59372 0.341886 9.52566L6 7.63962V4.5C6 4.31061 6.107 4.13748 6.27639 4.05279L14.2764 0.0527869C14.4314 -0.0247102 14.6155 -0.0164282 14.7629 0.0746751ZM6 8.69371L1 10.3604V15H6V8.69371ZM7 15H9V13.5C9 13.2239 9.22386 13 9.5 13H11.5C11.7761 13 12 13.2239 12 13.5V15H14V1.30902L7 4.80902V15Z" fill="#10B1F0" fill-opacity="0.5"/>
<path d="M2 11H3V12H2V11Z" fill="#10B1F0" fill-opacity="0.5"/>
<path d="M4 11H5V12H4V11Z" fill="#10B1F0" fill-opacity="0.5"/>
<path d="M2 13H3V14H2V13Z" fill="#10B1F0" fill-opacity="0.5"/>
<path d="M4 13H5V14H4V13Z" fill="#10B1F0" fill-opacity="0.5"/>
<path d="M8 9H9V10H8V9Z" fill="#10B1F0" fill-opacity="0.5"/>
<path d="M10 9H11V10H10V9Z" fill="#10B1F0" fill-opacity="0.5"/>
<path d="M8 11H9V12H8V11Z" fill="#10B1F0" fill-opacity="0.5"/>
<path d="M10 11H11V12H10V11Z" fill="#10B1F0" fill-opacity="0.5"/>
<path d="M12 9H13V10H12V9Z" fill="#10B1F0" fill-opacity="0.5"/>
<path d="M12 11H13V12H12V11Z" fill="#10B1F0" fill-opacity="0.5"/>
<path d="M8 7H9V8H8V7Z" fill="#10B1F0" fill-opacity="0.5"/>
<path d="M10 7H11V8H10V7Z" fill="#10B1F0" fill-opacity="0.5"/>
<path d="M12 7H13V8H12V7Z" fill="#10B1F0" fill-opacity="0.5"/>
<path d="M8 5H9V6H8V5Z" fill="#10B1F0" fill-opacity="0.5"/>
<path d="M10 5H11V6H10V5Z" fill="#10B1F0" fill-opacity="0.5"/>
<path d="M12 5H13V6H12V5Z" fill="#10B1F0" fill-opacity="0.5"/>
<path d="M12 3H13V4H12V3Z" fill="#10B1F0" fill-opacity="0.5"/>
<path d="M21 17C21 17.5523 19.2091 18 17 18C14.7909 18 13 17.5523 13 17C13 16.4477 14.7909 16 17 16C19.2091 16 21 16.4477 21 17Z" fill="black" fill-opacity="0.21"/>
<g clip-path="url(#clip0_1079_534)">
<mask id="path-3-inside-1_1079_534" fill="white">
<path d="M20 9.5C20.1326 9.5 20.2598 9.55268 20.3536 9.64645C20.4473 9.74021 20.5 9.86739 20.5 10V16C20.5 16.1326 20.4473 16.2598 20.3536 16.3536C20.2598 16.4473 20.1326 16.5 20 16.5H14C13.8674 16.5 13.7402 16.4473 13.6464 16.3536C13.5527 16.2598 13.5 16.1326 13.5 16V10C13.5 9.86739 13.5527 9.74021 13.6464 9.64645C13.7402 9.55268 13.8674 9.5 14 9.5H20ZM14 9C13.7348 9 13.4804 9.10536 13.2929 9.29289C13.1054 9.48043 13 9.73478 13 10V16C13 16.2652 13.1054 16.5196 13.2929 16.7071C13.4804 16.8946 13.7348 17 14 17H20C20.2652 17 20.5196 16.8946 20.7071 16.7071C20.8946 16.5196 21 16.2652 21 16V10C21 9.73478 20.8946 9.48043 20.7071 9.29289C20.5196 9.10536 20.2652 9 20 9H14Z"/>
</mask>
<path d="M20 9.5C20.1326 9.5 20.2598 9.55268 20.3536 9.64645C20.4473 9.74021 20.5 9.86739 20.5 10V16C20.5 16.1326 20.4473 16.2598 20.3536 16.3536C20.2598 16.4473 20.1326 16.5 20 16.5H14C13.8674 16.5 13.7402 16.4473 13.6464 16.3536C13.5527 16.2598 13.5 16.1326 13.5 16V10C13.5 9.86739 13.5527 9.74021 13.6464 9.64645C13.7402 9.55268 13.8674 9.5 14 9.5H20ZM14 9C13.7348 9 13.4804 9.10536 13.2929 9.29289C13.1054 9.48043 13 9.73478 13 10V16C13 16.2652 13.1054 16.5196 13.2929 16.7071C13.4804 16.8946 13.7348 17 14 17H20C20.2652 17 20.5196 16.8946 20.7071 16.7071C20.8946 16.5196 21 16.2652 21 16V10C21 9.73478 20.8946 9.48043 20.7071 9.29289C20.5196 9.10536 20.2652 9 20 9H14Z" fill="#10B1F0"/>
<path d="M20 9.5V8.5V9.5ZM13.5 16H12.5H13.5ZM14 9.5V8.5V9.5ZM14 9V8V9ZM13 10H12H13ZM13 16H12H13ZM20 9.5V10.5C19.8674 10.5 19.7402 10.4473 19.6464 10.3536L20.3536 9.64645L21.0607 8.93934C20.7794 8.65804 20.3978 8.5 20 8.5V9.5ZM20.3536 9.64645L19.6464 10.3536C19.5527 10.2598 19.5 10.1326 19.5 10H20.5H21.5C21.5 9.60217 21.342 9.22064 21.0607 8.93934L20.3536 9.64645ZM20.5 10H19.5V16H20.5H21.5V10H20.5ZM20.5 16H19.5C19.5 15.8674 19.5527 15.7402 19.6464 15.6464L20.3536 16.3536L21.0607 17.0607C21.342 16.7794 21.5 16.3978 21.5 16H20.5ZM20.3536 16.3536L19.6464 15.6464C19.7402 15.5527 19.8674 15.5 20 15.5V16.5V17.5C20.3978 17.5 20.7794 17.342 21.0607 17.0607L20.3536 16.3536ZM20 16.5V15.5H14V16.5V17.5H20V16.5ZM14 16.5V15.5C14.1326 15.5 14.2598 15.5527 14.3536 15.6464L13.6464 16.3536L12.9393 17.0607C13.2206 17.342 13.6022 17.5 14 17.5V16.5ZM13.6464 16.3536L14.3536 15.6464C14.4473 15.7402 14.5 15.8674 14.5 16H13.5H12.5C12.5 16.3978 12.658 16.7794 12.9393 17.0607L13.6464 16.3536ZM13.5 16H14.5V10H13.5H12.5V16H13.5ZM13.5 10H14.5C14.5 10.1326 14.4473 10.2598 14.3536 10.3536L13.6464 9.64645L12.9393 8.93934C12.658 9.22064 12.5 9.60218 12.5 10H13.5ZM13.6464 9.64645L14.3536 10.3536C14.2598 10.4473 14.1326 10.5 14 10.5V9.5V8.5C13.6022 8.5 13.2206 8.65804 12.9393 8.93934L13.6464 9.64645ZM14 9.5V10.5H20V9.5V8.5H14V9.5ZM14 9V8C13.4696 8 12.9609 8.21071 12.5858 8.58579L13.2929 9.29289L14 10L14 10V9ZM13.2929 9.29289L12.5858 8.58579C12.2107 8.96086 12 9.46957 12 10L13 10L14 10L14 10L13.2929 9.29289ZM13 10H12V16H13H14V10H13ZM13 16H12C12 16.5304 12.2107 17.0391 12.5858 17.4142L13.2929 16.7071L14 16L14 16H13ZM13.2929 16.7071L12.5858 17.4142C12.9609 17.7893 13.4696 18 14 18V17V16L14 16L13.2929 16.7071ZM14 17V18H20V17V16H14V17ZM20 17V18C20.5304 18 21.0391 17.7893 21.4142 17.4142L20.7071 16.7071L20 16L20 16V17ZM20.7071 16.7071L21.4142 17.4142C21.7893 17.0391 22 16.5304 22 16H21H20L20 16L20.7071 16.7071ZM21 16H22V10H21H20V16H21ZM21 10H22C22 9.46957 21.7893 8.96086 21.4142 8.58579L20.7071 9.29289L20 10L20 10H21ZM20.7071 9.29289L21.4142 8.58579C21.0391 8.21071 20.5304 8 20 8V9V10L20 10L20.7071 9.29289ZM20 9V8H14V9V10H20V9Z" fill="#10B1F0" mask="url(#path-3-inside-1_1079_534)"/>
<path d="M17 11C17.0663 11 17.1299 11.0263 17.1768 11.0732C17.2237 11.1201 17.25 11.1837 17.25 11.25V12.75H18.75C18.8163 12.75 18.8799 12.7763 18.9268 12.8232C18.9737 12.8701 19 12.9337 19 13C19 13.0663 18.9737 13.1299 18.9268 13.1768C18.8799 13.2237 18.8163 13.25 18.75 13.25H17.25V14.75C17.25 14.8163 17.2237 14.8799 17.1768 14.9268C17.1299 14.9737 17.0663 15 17 15C16.9337 15 16.8701 14.9737 16.8232 14.9268C16.7763 14.8799 16.75 14.8163 16.75 14.75V13.25H15.25C15.1837 13.25 15.1201 13.2237 15.0732 13.1768C15.0263 13.1299 15 13.0663 15 13C15 12.9337 15.0263 12.8701 15.0732 12.8232C15.1201 12.7763 15.1837 12.75 15.25 12.75H16.75V11.25C16.75 11.1837 16.7763 11.1201 16.8232 11.0732C16.8701 11.0263 16.9337 11 17 11Z" fill="#10B1F0"/>
<path d="M17 11V15" stroke="#10B1F0" stroke-linecap="round"/>
<path d="M19.005 12.995L15.005 12.995" stroke="#10B1F0" stroke-linecap="round"/>
</g>
<defs>
<clipPath id="clip0_1079_534">
<rect width="8" height="8" fill="white" transform="translate(13 9)"/>
</clipPath>
</defs>
</svg>
