<svg width="21" height="20" viewBox="0 0 21 20" fill="none" xmlns="http://www.w3.org/2000/svg">
<path d="M9 10.5C16.5 10.5 18 15 18 16.5C18 18 16.5 18 16.5 18H1.5C1.49988 18 0 17.9999 0 16.5C5.46351e-08 15 1.5 10.5 9 10.5ZM9 12C5.56635 12 3.72643 13.0197 2.74805 13.998C1.73053 15.0156 1.50214 16.1249 1.5 16.4951H16.5C16.4979 16.1249 16.2695 15.0156 15.252 13.998C14.2736 13.0197 12.4337 12 9 12ZM9 0C11.4853 0 13.5 2.01472 13.5 4.5C13.5 6.98528 11.4853 9 9 9C6.51472 9 4.5 6.98528 4.5 4.5C4.5 2.01472 6.51472 2.416e-08 9 0ZM9 1.5C7.34315 1.5 6 2.84315 6 4.5C6 6.15685 7.34315 7.5 9 7.5C10.6569 7.5 12 6.15685 12 4.5C12 2.84315 10.6569 1.5 9 1.5Z" fill="#10B1F0" fill-opacity="0.5"/>
<path d="M21 19C21 19.5523 19.2091 20 17 20C14.7909 20 13 19.5523 13 19C13 18.4477 14.7909 18 17 18C19.2091 18 21 18.4477 21 19Z" fill="black" fill-opacity="0.21"/>
<g clip-path="url(#clip0_1064_236)">
<path d="M20 11.5C20.1326 11.5 20.2598 11.5527 20.3536 11.6464C20.4473 11.7402 20.5 11.8674 20.5 12V18C20.5 18.1326 20.4473 18.2598 20.3536 18.3536C20.2598 18.4473 20.1326 18.5 20 18.5H14C13.8674 18.5 13.7402 18.4473 13.6464 18.3536C13.5527 18.2598 13.5 18.1326 13.5 18V12C13.5 11.8674 13.5527 11.7402 13.6464 11.6464C13.7402 11.5527 13.8674 11.5 14 11.5H20ZM14 11C13.7348 11 13.4804 11.1054 13.2929 11.2929C13.1054 11.4804 13 11.7348 13 12V18C13 18.2652 13.1054 18.5196 13.2929 18.7071C13.4804 18.8946 13.7348 19 14 19H20C20.2652 19 20.5196 18.8946 20.7071 18.7071C20.8946 18.5196 21 18.2652 21 18V12C21 11.7348 20.8946 11.4804 20.7071 11.2929C20.5196 11.1054 20.2652 11 20 11H14Z" fill="#10B1F0"/>
<path d="M17 13C17.0663 13 17.1299 13.0263 17.1768 13.0732C17.2237 13.1201 17.25 13.1837 17.25 13.25V14.75H18.75C18.8163 14.75 18.8799 14.7763 18.9268 14.8232C18.9737 14.8701 19 14.9337 19 15C19 15.0663 18.9737 15.1299 18.9268 15.1768C18.8799 15.2237 18.8163 15.25 18.75 15.25H17.25V16.75C17.25 16.8163 17.2237 16.8799 17.1768 16.9268C17.1299 16.9737 17.0663 17 17 17C16.9337 17 16.8701 16.9737 16.8232 16.9268C16.7763 16.8799 16.75 16.8163 16.75 16.75V15.25H15.25C15.1837 15.25 15.1201 15.2237 15.0732 15.1768C15.0263 15.1299 15 15.0663 15 15C15 14.9337 15.0263 14.8701 15.0732 14.8232C15.1201 14.7763 15.1837 14.75 15.25 14.75H16.75V13.25C16.75 13.1837 16.7763 13.1201 16.8232 13.0732C16.8701 13.0263 16.9337 13 17 13Z" fill="#10B1F0"/>
</g>
<defs>
<clipPath id="clip0_1064_236">
<rect width="8" height="8" fill="white" transform="translate(13 11)"/>
</clipPath>
</defs>
</svg>
