<svg width="21" height="20" viewBox="0 0 21 20" fill="none" xmlns="http://www.w3.org/2000/svg">
<path d="M9 9C11.4853 9 13.5 6.98528 13.5 4.5C13.5 2.01472 11.4853 0 9 0C6.51472 0 4.5 2.01472 4.5 4.5C4.5 6.98528 6.51472 9 9 9ZM12 4.5C12 6.15685 10.6569 7.5 9 7.5C7.34315 7.5 6 6.15685 6 4.5C6 2.84315 7.34315 1.5 9 1.5C10.6569 1.5 12 2.84315 12 4.5Z" fill="#10B1F0" fill-opacity="0.5"/>
<path d="M18 16.5C18 18 16.5 18 16.5 18H1.5C1.5 18 0 18 0 16.5C0 15 1.5 10.5 9 10.5C16.5 10.5 18 15 18 16.5ZM16.5 16.4948C16.4978 16.1246 16.2693 15.0157 15.2518 13.9982C14.2734 13.0198 12.4336 12 8.99998 12C5.56632 12 3.72653 13.0198 2.74815 13.9982C1.73063 15.0157 1.50214 16.1246 1.5 16.4948H16.5Z" fill="#10B1F0" fill-opacity="0.5"/>
<path d="M21 19C21 19.5523 19.2091 20 17 20C14.7909 20 13 19.5523 13 19C13 18.4477 14.7909 18 17 18C19.2091 18 21 18.4477 21 19Z" fill="black" fill-opacity="0.21"/>
<path d="M15.4615 13.3C15.5431 13.3 15.6211 13.3319 15.6788 13.3881C15.7365 13.4444 15.7692 13.5204 15.7692 13.6V17.2C15.7692 17.2796 15.7365 17.3556 15.6788 17.4119C15.6211 17.4681 15.5431 17.5 15.4615 17.5C15.3799 17.5 15.3019 17.4681 15.2442 17.4119C15.1865 17.3556 15.1538 17.2796 15.1538 17.2V13.6C15.1538 13.5204 15.1865 13.4444 15.2442 13.3881C15.3019 13.3319 15.3799 13.3 15.4615 13.3Z" fill="#10B1F0"/>
<path d="M17 13.3C17.0816 13.3 17.1596 13.3319 17.2173 13.3881C17.275 13.4444 17.3077 13.5204 17.3077 13.6V17.2C17.3077 17.2796 17.275 17.3556 17.2173 17.4119C17.1596 17.4681 17.0816 17.5 17 17.5C16.9184 17.5 16.8404 17.4681 16.7827 17.4119C16.725 17.3556 16.6923 17.2796 16.6923 17.2V13.6C16.6923 13.5204 16.725 13.4444 16.7827 13.3881C16.8404 13.3319 16.9184 13.3 17 13.3Z" fill="#10B1F0"/>
<path d="M18.5385 13.3C18.6201 13.3 18.6981 13.3319 18.7558 13.3881C18.8135 13.4444 18.8462 13.5204 18.8462 13.6V17.2C18.8462 17.2796 18.8135 17.3556 18.7558 17.4119C18.6981 17.4681 18.6201 17.5 18.5385 17.5C18.4569 17.5 18.3789 17.4681 18.3212 17.4119C18.2635 17.3556 18.2308 17.2796 18.2308 17.2V13.6C18.2308 13.5204 18.2635 13.4444 18.3212 13.3881C18.3789 13.3319 18.4569 13.3 18.5385 13.3Z" fill="#10B1F0"/>
<path fill-rule="evenodd" clip-rule="evenodd" d="M17.6154 10C17.7786 10 17.9356 10.0628 18.051 10.1753C18.1664 10.2878 18.2308 10.4409 18.2308 10.6H20.3846C20.5478 10.6 20.7048 10.6628 20.8202 10.7753C20.9356 10.8878 21 11.0409 21 11.2V11.8C21 11.9591 20.9356 12.1122 20.8202 12.2247C20.7048 12.3372 20.5478 12.4 20.3846 12.4H20.0769V17.8C20.0769 18.1183 19.9472 18.4234 19.7163 18.6484C19.4855 18.8735 19.1726 19 18.8462 19H15.1538C14.8274 19 14.5145 18.8735 14.2837 18.6484C14.0528 18.4234 13.9231 18.1183 13.9231 17.8V12.4H13.6154C13.4522 12.4 13.2952 12.3372 13.1798 12.2247C13.0644 12.1122 13 11.9591 13 11.8V11.2C13 11.0409 13.0644 10.8878 13.1798 10.7753C13.2952 10.6628 13.4522 10.6 13.6154 10.6H15.7692C15.7692 10.4409 15.8336 10.2878 15.949 10.1753C16.0644 10.0628 16.2214 10 16.3846 10H17.6154ZM14.5385 12.4356V17.8C14.5385 17.9591 14.6029 18.1122 14.7183 18.2247C14.8337 18.3372 14.9906 18.4 15.1538 18.4H18.8462C19.0094 18.4 19.1663 18.3372 19.2817 18.2247C19.3971 18.1122 19.4615 17.9591 19.4615 17.8V12.4356L19.3885 12.4H14.6115L14.5385 12.4356ZM13.6154 11.8H20.3846V11.2H13.6154V11.8Z" fill="#10B1F0"/>
</svg>
