<svg width="21" height="18" viewBox="0 0 21 18" fill="none" xmlns="http://www.w3.org/2000/svg">
<path d="M14.7629 0.0746751C14.9103 0.165778 15 0.326712 15 0.500001V15.5C15 15.7761 14.7761 16 14.5 16H11.5C11.2239 16 11 15.7761 11 15.5V14H10V15.5C10 15.7761 9.77614 16 9.5 16H0.5C0.223858 16 0 15.7761 0 15.5V10C0 9.78479 0.137715 9.59372 0.341886 9.52566L6 7.63962V4.5C6 4.31061 6.107 4.13748 6.27639 4.05279L14.2764 0.0527869C14.4314 -0.0247102 14.6155 -0.0164282 14.7629 0.0746751ZM6 8.69371L1 10.3604V15H6V8.69371ZM7 15H9V13.5C9 13.2239 9.22386 13 9.5 13H11.5C11.7761 13 12 13.2239 12 13.5V15H14V1.30902L7 4.80902V15Z" fill="#10B1F0" fill-opacity="0.5"/>
<path d="M2 11H3V12H2V11Z" fill="#10B1F0" fill-opacity="0.5"/>
<path d="M4 11H5V12H4V11Z" fill="#10B1F0" fill-opacity="0.5"/>
<path d="M2 13H3V14H2V13Z" fill="#10B1F0" fill-opacity="0.5"/>
<path d="M4 13H5V14H4V13Z" fill="#10B1F0" fill-opacity="0.5"/>
<path d="M8 9H9V10H8V9Z" fill="#10B1F0" fill-opacity="0.5"/>
<path d="M10 9H11V10H10V9Z" fill="#10B1F0" fill-opacity="0.5"/>
<path d="M8 11H9V12H8V11Z" fill="#10B1F0" fill-opacity="0.5"/>
<path d="M10 11H11V12H10V11Z" fill="#10B1F0" fill-opacity="0.5"/>
<path d="M12 9H13V10H12V9Z" fill="#10B1F0" fill-opacity="0.5"/>
<path d="M12 11H13V12H12V11Z" fill="#10B1F0" fill-opacity="0.5"/>
<path d="M8 7H9V8H8V7Z" fill="#10B1F0" fill-opacity="0.5"/>
<path d="M10 7H11V8H10V7Z" fill="#10B1F0" fill-opacity="0.5"/>
<path d="M12 7H13V8H12V7Z" fill="#10B1F0" fill-opacity="0.5"/>
<path d="M8 5H9V6H8V5Z" fill="#10B1F0" fill-opacity="0.5"/>
<path d="M10 5H11V6H10V5Z" fill="#10B1F0" fill-opacity="0.5"/>
<path d="M12 5H13V6H12V5Z" fill="#10B1F0" fill-opacity="0.5"/>
<path d="M12 3H13V4H12V3Z" fill="#10B1F0" fill-opacity="0.5"/>
<path d="M15.4615 11.3C15.5431 11.3 15.6211 11.3319 15.6788 11.3881C15.7365 11.4444 15.7692 11.5204 15.7692 11.6V15.2C15.7692 15.2796 15.7365 15.3556 15.6788 15.4119C15.6211 15.4681 15.5431 15.5 15.4615 15.5C15.3799 15.5 15.3019 15.4681 15.2442 15.4119C15.1865 15.3556 15.1538 15.2796 15.1538 15.2V11.6C15.1538 11.5204 15.1865 11.4444 15.2442 11.3881C15.3019 11.3319 15.3799 11.3 15.4615 11.3Z" fill="#10B1F0"/>
<path d="M17 11.3C17.0816 11.3 17.1596 11.3319 17.2173 11.3881C17.275 11.4444 17.3077 11.5204 17.3077 11.6V15.2C17.3077 15.2796 17.275 15.3556 17.2173 15.4119C17.1596 15.4681 17.0816 15.5 17 15.5C16.9184 15.5 16.8404 15.4681 16.7827 15.4119C16.725 15.3556 16.6923 15.2796 16.6923 15.2V11.6C16.6923 11.5204 16.725 11.4444 16.7827 11.3881C16.8404 11.3319 16.9184 11.3 17 11.3Z" fill="#10B1F0"/>
<path d="M18.5385 11.3C18.6201 11.3 18.6981 11.3319 18.7558 11.3881C18.8135 11.4444 18.8462 11.5204 18.8462 11.6V15.2C18.8462 15.2796 18.8135 15.3556 18.7558 15.4119C18.6981 15.4681 18.6201 15.5 18.5385 15.5C18.4569 15.5 18.3789 15.4681 18.3212 15.4119C18.2635 15.3556 18.2308 15.2796 18.2308 15.2V11.6C18.2308 11.5204 18.2635 11.4444 18.3212 11.3881C18.3789 11.3319 18.4569 11.3 18.5385 11.3Z" fill="#10B1F0"/>
<path fill-rule="evenodd" clip-rule="evenodd" d="M17.6154 8C17.7786 8 17.9356 8.06279 18.051 8.17531C18.1664 8.28783 18.2308 8.44087 18.2308 8.6H20.3846C20.5478 8.6 20.7048 8.66279 20.8202 8.77531C20.9356 8.88783 21 9.04087 21 9.2V9.8C21 9.95913 20.9356 10.1122 20.8202 10.2247C20.7048 10.3372 20.5478 10.4 20.3846 10.4H20.0769V15.8C20.0769 16.1183 19.9472 16.4234 19.7163 16.6484C19.4855 16.8735 19.1726 17 18.8462 17H15.1538C14.8274 17 14.5145 16.8735 14.2837 16.6484C14.0528 16.4234 13.9231 16.1183 13.9231 15.8V10.4H13.6154C13.4522 10.4 13.2952 10.3372 13.1798 10.2247C13.0644 10.1122 13 9.95913 13 9.8V9.2C13 9.04087 13.0644 8.88783 13.1798 8.77531C13.2952 8.66279 13.4522 8.6 13.6154 8.6H15.7692C15.7692 8.44087 15.8336 8.28783 15.949 8.17531C16.0644 8.06279 16.2214 8 16.3846 8H17.6154ZM14.5385 10.4356V15.8C14.5385 15.9591 14.6029 16.1122 14.7183 16.2247C14.8337 16.3372 14.9906 16.4 15.1538 16.4H18.8462C19.0094 16.4 19.1663 16.3372 19.2817 16.2247C19.3971 16.1122 19.4615 15.9591 19.4615 15.8V10.4356L19.3885 10.4H14.6115L14.5385 10.4356ZM13.6154 9.8H20.3846V9.2H13.6154V9.8Z" fill="#10B1F0"/>
<path d="M21 17C21 17.5523 19.2091 18 17 18C14.7909 18 13 17.5523 13 17C13 16.4477 14.7909 16 17 16C19.2091 16 21 16.4477 21 17Z" fill="black" fill-opacity="0.21"/>
</svg>
