<svg width="21" height="16" viewBox="0 0 21 16" fill="none" xmlns="http://www.w3.org/2000/svg">
<path d="M15.4615 9.3C15.5431 9.3 15.6211 9.33186 15.6788 9.38812C15.7365 9.44439 15.7692 9.52043 15.7692 9.6V13.2C15.7692 13.2796 15.7365 13.3556 15.6788 13.4119C15.6211 13.4681 15.5431 13.5 15.4615 13.5C15.3799 13.5 15.3019 13.4681 15.2442 13.4119C15.1865 13.3556 15.1538 13.2796 15.1538 13.2V9.6C15.1538 9.52043 15.1865 9.44439 15.2442 9.38812C15.3019 9.33186 15.3799 9.3 15.4615 9.3Z" fill="#10B1F0"/>
<path d="M17 9.3C17.0816 9.3 17.1596 9.33186 17.2173 9.38812C17.275 9.44439 17.3077 9.52043 17.3077 9.6V13.2C17.3077 13.2796 17.275 13.3556 17.2173 13.4119C17.1596 13.4681 17.0816 13.5 17 13.5C16.9184 13.5 16.8404 13.4681 16.7827 13.4119C16.725 13.3556 16.6923 13.2796 16.6923 13.2V9.6C16.6923 9.52043 16.725 9.44439 16.7827 9.38812C16.8404 9.33186 16.9184 9.3 17 9.3Z" fill="#10B1F0"/>
<path d="M18.5385 9.3C18.6201 9.3 18.6981 9.33186 18.7558 9.38812C18.8135 9.44439 18.8462 9.52043 18.8462 9.6V13.2C18.8462 13.2796 18.8135 13.3556 18.7558 13.4119C18.6981 13.4681 18.6201 13.5 18.5385 13.5C18.4569 13.5 18.3789 13.4681 18.3212 13.4119C18.2635 13.3556 18.2308 13.2796 18.2308 13.2V9.6C18.2308 9.52043 18.2635 9.44439 18.3212 9.38812C18.3789 9.33186 18.4569 9.3 18.5385 9.3Z" fill="#10B1F0"/>
<path fill-rule="evenodd" clip-rule="evenodd" d="M17.6154 6C17.7786 6 17.9356 6.06279 18.051 6.17531C18.1664 6.28783 18.2308 6.44087 18.2308 6.6H20.3846C20.5478 6.6 20.7048 6.66279 20.8202 6.77531C20.9356 6.88783 21 7.04087 21 7.2V7.8C21 7.95913 20.9356 8.11217 20.8202 8.22469C20.7048 8.33721 20.5478 8.4 20.3846 8.4H20.0769V13.8C20.0769 14.1183 19.9472 14.4234 19.7163 14.6484C19.4855 14.8735 19.1726 15 18.8462 15H15.1538C14.8274 15 14.5145 14.8735 14.2837 14.6484C14.0528 14.4234 13.9231 14.1183 13.9231 13.8V8.4H13.6154C13.4522 8.4 13.2952 8.33721 13.1798 8.22469C13.0644 8.11217 13 7.95913 13 7.8V7.2C13 7.04087 13.0644 6.88783 13.1798 6.77531C13.2952 6.66279 13.4522 6.6 13.6154 6.6H15.7692C15.7692 6.44087 15.8336 6.28783 15.949 6.17531C16.0644 6.06279 16.2214 6 16.3846 6H17.6154ZM14.5385 8.43562V13.8C14.5385 13.9591 14.6029 14.1122 14.7183 14.2247C14.8337 14.3372 14.9906 14.4 15.1538 14.4H18.8462C19.0094 14.4 19.1663 14.3372 19.2817 14.2247C19.3971 14.1122 19.4615 13.9591 19.4615 13.8V8.43562L19.3885 8.4H14.6115L14.5385 8.43562ZM13.6154 7.8H20.3846V7.2H13.6154V7.8Z" fill="#10B1F0"/>
<path d="M8.21144 0.0469084C8.07742 -0.0156362 7.92258 -0.0156362 7.78856 0.0469084L0.288558 3.54691C0.107914 3.63121 -0.00539504 3.81476 0.000197994 4.01403C0.005791 4.2133 0.129217 4.3902 0.314306 4.46424L7.81431 7.46424C7.93351 7.51192 8.06649 7.51192 8.1857 7.46424L14 5.13852V11C13.4477 11 13 11.4477 13 12V14H16V12C16 11.4477 15.5523 11 15 11V4.73852L15.6857 4.46424C15.8708 4.3902 15.9942 4.2133 15.9998 4.01403C16.0054 3.81476 15.8921 3.63121 15.7114 3.54691L8.21144 0.0469084ZM8 6.46148L1.75802 3.96469L8 1.05176L14.242 3.96469L8 6.46148Z" fill="#10B1F0" fill-opacity="0.5"/>
<path d="M4.17556 7.03183C4.04549 6.98306 3.90098 6.99059 3.77669 7.05264C3.6524 7.11468 3.55952 7.22564 3.52032 7.35892L3.02032 9.05891C2.94756 9.30631 3.07488 9.56846 3.31431 9.66424L7.81431 11.4642C7.93351 11.5119 8.06649 11.5119 8.1857 11.4642L12.6857 9.66424C12.9251 9.56846 13.0524 9.30631 12.9797 9.05891L12.4797 7.35892C12.4405 7.22564 12.3476 7.11468 12.2233 7.05264C12.099 6.99059 11.9545 6.98306 11.8244 7.03183L8 8.466L4.17556 7.03183ZM4.10803 8.90469L4.32795 8.15698L7.82444 9.46816C7.93763 9.51061 8.06237 9.51061 8.17556 9.46816L11.6721 8.15698L11.892 8.90469L8 10.4615L4.10803 8.90469Z" fill="#10B1F0" fill-opacity="0.5"/>
<path d="M21 15C21 15.5523 19.2091 16 17 16C14.7909 16 13 15.5523 13 15C13 14.4477 14.7909 14 17 14C19.2091 14 21 14.4477 21 15Z" fill="black" fill-opacity="0.21"/>
</svg>
