<svg width="21" height="20" viewBox="0 0 21 20" fill="none" xmlns="http://www.w3.org/2000/svg">
<path d="M9 9C11.4853 9 13.5 6.98528 13.5 4.5C13.5 2.01472 11.4853 0 9 0C6.51472 0 4.5 2.01472 4.5 4.5C4.5 6.98528 6.51472 9 9 9ZM12 4.5C12 6.15685 10.6569 7.5 9 7.5C7.34315 7.5 6 6.15685 6 4.5C6 2.84315 7.34315 1.5 9 1.5C10.6569 1.5 12 2.84315 12 4.5Z" fill="#10B1F0" fill-opacity="0.5"/>
<path d="M18 16.5C18 18 16.5 18 16.5 18H1.5C1.5 18 0 18 0 16.5C0 15 1.5 10.5 9 10.5C16.5 10.5 18 15 18 16.5ZM16.5 16.4948C16.4978 16.1246 16.2693 15.0157 15.2518 13.9982C14.2734 13.0198 12.4336 12 8.99998 12C5.56632 12 3.72653 13.0198 2.74815 13.9982C1.73063 15.0157 1.50214 16.1246 1.5 16.4948H16.5Z" fill="#10B1F0" fill-opacity="0.5"/>
<path d="M20.7 19C20.7 19.5316 18.9763 19.9625 16.85 19.9625C14.7237 19.9625 13 19.5316 13 19C13 18.4684 14.7237 18.0375 16.85 18.0375C18.9763 18.0375 20.7 18.4684 20.7 19Z" fill="black" fill-opacity="0.21"/>
<path d="M20.9203 11.7947C20.9713 11.8464 21 11.9164 21 11.9894C21 12.0624 20.9713 12.1325 20.9203 12.1842L20.3507 12.7602L19.2584 11.6568L19.828 11.0808C19.8792 11.0291 19.9487 11 20.0211 11C20.0935 11 20.1629 11.0291 20.2141 11.0808L20.9203 11.7947ZM19.9645 13.1497L18.8722 12.0463L15.1513 15.8056C15.1212 15.836 15.0986 15.873 15.0852 15.9137L14.6455 17.2456C14.6376 17.2698 14.6364 17.2959 14.6423 17.3208C14.6481 17.3457 14.6607 17.3684 14.6786 17.3865C14.6965 17.4046 14.719 17.4173 14.7437 17.4232C14.7683 17.4291 14.7941 17.428 14.8181 17.4199L16.1365 16.9758C16.1768 16.9624 16.2135 16.9397 16.2436 16.9096L19.9645 13.1497Z" fill="#10B1F0"/>
<path fill-rule="evenodd" clip-rule="evenodd" d="M13 18.1724C13 18.3919 13.0863 18.6024 13.2399 18.7576C13.3936 18.9128 13.602 19 13.8192 19H19.8269C20.0442 19 20.2526 18.9128 20.4062 18.7576C20.5599 18.6024 20.6462 18.3919 20.6462 18.1724V14.8622C20.6462 14.789 20.6174 14.7189 20.5662 14.6671C20.515 14.6154 20.4455 14.5863 20.3731 14.5863C20.3007 14.5863 20.2312 14.6154 20.18 14.6671C20.1288 14.7189 20.1 14.789 20.1 14.8622V18.1724C20.1 18.2456 20.0712 18.3158 20.02 18.3675C19.9688 18.4192 19.8994 18.4483 19.8269 18.4483H13.8192C13.7468 18.4483 13.6773 18.4192 13.6261 18.3675C13.5749 18.3158 13.5462 18.2456 13.5462 18.1724V12.1036C13.5462 12.0305 13.5749 11.9603 13.6261 11.9086C13.6773 11.8568 13.7468 11.8278 13.8192 11.8278H17.3692C17.4417 11.8278 17.5111 11.7987 17.5623 11.747C17.6135 11.6952 17.6423 11.6251 17.6423 11.5519C17.6423 11.4788 17.6135 11.4086 17.5623 11.3569C17.5111 11.3051 17.4417 11.2761 17.3692 11.2761H13.8192C13.602 11.2761 13.3936 11.3633 13.2399 11.5185C13.0863 11.6737 13 11.8841 13 12.1036V18.1724Z" fill="#10B1F0"/>
</svg>
