<svg width="21" height="16" viewBox="0 0 21 16" fill="none" xmlns="http://www.w3.org/2000/svg">
<path d="M8.21144 0.0469084C8.07742 -0.0156362 7.92258 -0.0156362 7.78856 0.0469084L0.288558 3.54691C0.107914 3.63121 -0.00539504 3.81476 0.000197994 4.01403C0.005791 4.2133 0.129217 4.3902 0.314306 4.46424L7.81431 7.46424C7.93351 7.51192 8.06649 7.51192 8.1857 7.46424L14 5.13852V11C13.4477 11 13 11.4477 13 12V14H16V12C16 11.4477 15.5523 11 15 11V4.73852L15.6857 4.46424C15.8708 4.3902 15.9942 4.2133 15.9998 4.01403C16.0054 3.81476 15.8921 3.63121 15.7114 3.54691L8.21144 0.0469084ZM8 6.46148L1.75802 3.96469L8 1.05176L14.242 3.96469L8 6.46148Z" fill="#10B1F0" fill-opacity="0.5"/>
<path d="M4.17556 7.03183C4.04549 6.98306 3.90098 6.99059 3.77669 7.05264C3.6524 7.11468 3.55952 7.22564 3.52032 7.35892L3.02032 9.05891C2.94756 9.30631 3.07488 9.56846 3.31431 9.66424L7.81431 11.4642C7.93351 11.5119 8.06649 11.5119 8.1857 11.4642L12.6857 9.66424C12.9251 9.56846 13.0524 9.30631 12.9797 9.05891L12.4797 7.35892C12.4405 7.22564 12.3476 7.11468 12.2233 7.05264C12.099 6.99059 11.9545 6.98306 11.8244 7.03183L8 8.466L4.17556 7.03183ZM4.10803 8.90469L4.32795 8.15698L7.82444 9.46816C7.93763 9.51061 8.06237 9.51061 8.17556 9.46816L11.6721 8.15698L11.892 8.90469L8 10.4615L4.10803 8.90469Z" fill="#10B1F0" fill-opacity="0.5"/>
<path d="M20.9203 7.79468C20.9713 7.84639 21 7.91642 21 7.98943C21 8.06244 20.9713 8.13248 20.9203 8.18419L20.3507 8.76017L19.2584 7.65675L19.828 7.08077C19.8792 7.02905 19.9487 7 20.0211 7C20.0935 7 20.1629 7.02905 20.2141 7.08077L20.9203 7.79468ZM19.9645 9.14968L18.8722 8.04626L15.1513 11.8056C15.1212 11.836 15.0986 11.873 15.0852 11.9137L14.6455 13.2456C14.6376 13.2698 14.6364 13.2959 14.6423 13.3208C14.6481 13.3457 14.6607 13.3684 14.6786 13.3865C14.6965 13.4046 14.719 13.4173 14.7437 13.4232C14.7683 13.4291 14.7941 13.428 14.8181 13.4199L16.1365 12.9758C16.1768 12.9624 16.2135 12.9397 16.2436 12.9096L19.9645 9.14968Z" fill="#10B1F0"/>
<path fill-rule="evenodd" clip-rule="evenodd" d="M13 14.1724C13 14.3919 13.0863 14.6024 13.2399 14.7576C13.3936 14.9128 13.602 15 13.8192 15H19.8269C20.0442 15 20.2526 14.9128 20.4062 14.7576C20.5599 14.6024 20.6462 14.3919 20.6462 14.1724V10.8622C20.6462 10.789 20.6174 10.7189 20.5662 10.6671C20.515 10.6154 20.4455 10.5863 20.3731 10.5863C20.3007 10.5863 20.2312 10.6154 20.18 10.6671C20.1288 10.7189 20.1 10.789 20.1 10.8622V14.1724C20.1 14.2456 20.0712 14.3158 20.02 14.3675C19.9688 14.4192 19.8994 14.4483 19.8269 14.4483H13.8192C13.7468 14.4483 13.6773 14.4192 13.6261 14.3675C13.5749 14.3158 13.5462 14.2456 13.5462 14.1724V8.10363C13.5462 8.03047 13.5749 7.96031 13.6261 7.90857C13.6773 7.85684 13.7468 7.82778 13.8192 7.82778H17.3692C17.4417 7.82778 17.5111 7.79871 17.5623 7.74698C17.6135 7.69525 17.6423 7.62508 17.6423 7.55192C17.6423 7.47876 17.6135 7.4086 17.5623 7.35686C17.5111 7.30513 17.4417 7.27607 17.3692 7.27607H13.8192C13.602 7.27607 13.3936 7.36326 13.2399 7.51846C13.0863 7.67365 13 7.88415 13 8.10363V14.1724Z" fill="#10B1F0"/>
<path d="M20.7 14.9625C20.7 15.4941 18.9763 15.925 16.85 15.925C14.7237 15.925 13 15.4941 13 14.9625C13 14.4309 14.7237 14 16.85 14C18.9763 14 20.7 14.4309 20.7 14.9625Z" fill="black" fill-opacity="0.21"/>
</svg>
