<svg width="21" height="18" viewBox="0 0 21 18" fill="none" xmlns="http://www.w3.org/2000/svg">
<path d="M14.7629 0.0746751C14.9103 0.165778 15 0.326712 15 0.500001V15.5C15 15.7761 14.7761 16 14.5 16H11.5C11.2239 16 11 15.7761 11 15.5V14H10V15.5C10 15.7761 9.77614 16 9.5 16H0.5C0.223858 16 0 15.7761 0 15.5V10C0 9.78479 0.137715 9.59372 0.341886 9.52566L6 7.63962V4.5C6 4.31061 6.107 4.13748 6.27639 4.05279L14.2764 0.0527869C14.4314 -0.0247102 14.6155 -0.0164282 14.7629 0.0746751ZM6 8.69371L1 10.3604V15H6V8.69371ZM7 15H9V13.5C9 13.2239 9.22386 13 9.5 13H11.5C11.7761 13 12 13.2239 12 13.5V15H14V1.30902L7 4.80902V15Z" fill="#10B1F0" fill-opacity="0.5"/>
<path d="M2 11H3V12H2V11Z" fill="#10B1F0" fill-opacity="0.5"/>
<path d="M4 11H5V12H4V11Z" fill="#10B1F0" fill-opacity="0.5"/>
<path d="M2 13H3V14H2V13Z" fill="#10B1F0" fill-opacity="0.5"/>
<path d="M4 13H5V14H4V13Z" fill="#10B1F0" fill-opacity="0.5"/>
<path d="M8 9H9V10H8V9Z" fill="#10B1F0" fill-opacity="0.5"/>
<path d="M10 9H11V10H10V9Z" fill="#10B1F0" fill-opacity="0.5"/>
<path d="M8 11H9V12H8V11Z" fill="#10B1F0" fill-opacity="0.5"/>
<path d="M10 11H11V12H10V11Z" fill="#10B1F0" fill-opacity="0.5"/>
<path d="M12 9H13V10H12V9Z" fill="#10B1F0" fill-opacity="0.5"/>
<path d="M12 11H13V12H12V11Z" fill="#10B1F0" fill-opacity="0.5"/>
<path d="M8 7H9V8H8V7Z" fill="#10B1F0" fill-opacity="0.5"/>
<path d="M10 7H11V8H10V7Z" fill="#10B1F0" fill-opacity="0.5"/>
<path d="M12 7H13V8H12V7Z" fill="#10B1F0" fill-opacity="0.5"/>
<path d="M8 5H9V6H8V5Z" fill="#10B1F0" fill-opacity="0.5"/>
<path d="M10 5H11V6H10V5Z" fill="#10B1F0" fill-opacity="0.5"/>
<path d="M12 5H13V6H12V5Z" fill="#10B1F0" fill-opacity="0.5"/>
<path d="M12 3H13V4H12V3Z" fill="#10B1F0" fill-opacity="0.5"/>
<path d="M20.9203 9.79468C20.9713 9.84639 21 9.91642 21 9.98943C21 10.0624 20.9713 10.1325 20.9203 10.1842L20.3507 10.7602L19.2584 9.65675L19.828 9.08077C19.8792 9.02905 19.9487 9 20.0211 9C20.0935 9 20.1629 9.02905 20.2141 9.08077L20.9203 9.79468ZM19.9645 11.1497L18.8722 10.0463L15.1513 13.8056C15.1212 13.836 15.0986 13.873 15.0852 13.9137L14.6455 15.2456C14.6376 15.2698 14.6364 15.2959 14.6423 15.3208C14.6481 15.3457 14.6607 15.3684 14.6786 15.3865C14.6965 15.4046 14.719 15.4173 14.7437 15.4232C14.7683 15.4291 14.7941 15.428 14.8181 15.4199L16.1365 14.9758C16.1768 14.9624 16.2135 14.9397 16.2436 14.9096L19.9645 11.1497Z" fill="#10B1F0"/>
<path fill-rule="evenodd" clip-rule="evenodd" d="M13 16.1724C13 16.3919 13.0863 16.6024 13.2399 16.7576C13.3936 16.9128 13.602 17 13.8192 17H19.8269C20.0442 17 20.2526 16.9128 20.4062 16.7576C20.5599 16.6024 20.6462 16.3919 20.6462 16.1724V12.8622C20.6462 12.789 20.6174 12.7189 20.5662 12.6671C20.515 12.6154 20.4455 12.5863 20.3731 12.5863C20.3007 12.5863 20.2312 12.6154 20.18 12.6671C20.1288 12.7189 20.1 12.789 20.1 12.8622V16.1724C20.1 16.2456 20.0712 16.3158 20.02 16.3675C19.9688 16.4192 19.8994 16.4483 19.8269 16.4483H13.8192C13.7468 16.4483 13.6773 16.4192 13.6261 16.3675C13.5749 16.3158 13.5462 16.2456 13.5462 16.1724V10.1036C13.5462 10.0305 13.5749 9.96031 13.6261 9.90857C13.6773 9.85684 13.7468 9.82778 13.8192 9.82778H17.3692C17.4417 9.82778 17.5111 9.79871 17.5623 9.74698C17.6135 9.69525 17.6423 9.62508 17.6423 9.55192C17.6423 9.47876 17.6135 9.4086 17.5623 9.35686C17.5111 9.30513 17.4417 9.27607 17.3692 9.27607H13.8192C13.602 9.27607 13.3936 9.36326 13.2399 9.51846C13.0863 9.67365 13 9.88415 13 10.1036V16.1724Z" fill="#10B1F0"/>
<path d="M20.7 16.9625C20.7 17.4941 18.9763 17.925 16.85 17.925C14.7237 17.925 13 17.4941 13 16.9625C13 16.4309 14.7237 16 16.85 16C18.9763 16 20.7 16.4309 20.7 16.9625Z" fill="black" fill-opacity="0.21"/>
</svg>
