<svg width="21" height="18" viewBox="0 0 21 18" fill="none" xmlns="http://www.w3.org/2000/svg">
<path d="M8 8C10.2091 8 12 6.20914 12 4C12 1.79086 10.2091 0 8 0C5.79086 0 4 1.79086 4 4C4 6.20914 5.79086 8 8 8ZM10.6667 4C10.6667 5.47276 9.47276 6.66667 8 6.66667C6.52724 6.66667 5.33333 5.47276 5.33333 4C5.33333 2.52724 6.52724 1.33333 8 1.33333C9.47276 1.33333 10.6667 2.52724 10.6667 4Z" fill="#10B1F0" fill-opacity="0.5"/>
<path d="M16 14.6667C16 16 14.6667 16 14.6667 16H1.33333C1.33333 16 0 16 0 14.6667C0 13.3333 1.33333 9.33333 8 9.33333C14.6667 9.33333 16 13.3333 16 14.6667ZM14.6666 14.662C14.6647 14.333 14.4616 13.3473 13.5572 12.4428C12.6875 11.5731 11.0521 10.6667 7.99999 10.6667C4.94784 10.6667 3.31247 11.5731 2.4428 12.4428C1.53834 13.3473 1.33523 14.333 1.33333 14.662H14.6666Z" fill="#10B1F0" fill-opacity="0.5"/>
<path d="M20.7 17C20.7 17.5316 18.9763 17.9625 16.85 17.9625C14.7237 17.9625 13 17.5316 13 17C13 16.4684 14.7237 16.0375 16.85 16.0375C18.9763 16.0375 20.7 16.4684 20.7 17Z" fill="black" fill-opacity="0.21"/>
<path d="M20.9203 9.79468C20.9713 9.84639 21 9.91642 21 9.98943C21 10.0624 20.9713 10.1325 20.9203 10.1842L20.3507 10.7602L19.2584 9.65675L19.828 9.08077C19.8792 9.02905 19.9487 9 20.0211 9C20.0935 9 20.1629 9.02905 20.2141 9.08077L20.9203 9.79468ZM19.9645 11.1497L18.8722 10.0463L15.1513 13.8056C15.1212 13.836 15.0986 13.873 15.0852 13.9137L14.6455 15.2456C14.6376 15.2698 14.6364 15.2959 14.6423 15.3208C14.6481 15.3457 14.6607 15.3684 14.6786 15.3865C14.6965 15.4046 14.719 15.4173 14.7437 15.4232C14.7683 15.4291 14.7941 15.428 14.8181 15.4199L16.1365 14.9758C16.1768 14.9624 16.2135 14.9397 16.2436 14.9096L19.9645 11.1497Z" fill="#10B1F0"/>
<path fill-rule="evenodd" clip-rule="evenodd" d="M13 16.1724C13 16.3919 13.0863 16.6024 13.2399 16.7576C13.3936 16.9128 13.602 17 13.8192 17H19.8269C20.0442 17 20.2526 16.9128 20.4062 16.7576C20.5599 16.6024 20.6462 16.3919 20.6462 16.1724V12.8622C20.6462 12.789 20.6174 12.7189 20.5662 12.6671C20.515 12.6154 20.4455 12.5863 20.3731 12.5863C20.3007 12.5863 20.2312 12.6154 20.18 12.6671C20.1288 12.7189 20.1 12.789 20.1 12.8622V16.1724C20.1 16.2456 20.0712 16.3158 20.02 16.3675C19.9688 16.4192 19.8994 16.4483 19.8269 16.4483H13.8192C13.7468 16.4483 13.6773 16.4192 13.6261 16.3675C13.5749 16.3158 13.5462 16.2456 13.5462 16.1724V10.1036C13.5462 10.0305 13.5749 9.96031 13.6261 9.90857C13.6773 9.85684 13.7468 9.82778 13.8192 9.82778H17.3692C17.4417 9.82778 17.5111 9.79871 17.5623 9.74698C17.6135 9.69525 17.6423 9.62508 17.6423 9.55192C17.6423 9.47876 17.6135 9.4086 17.5623 9.35686C17.5111 9.30513 17.4417 9.27607 17.3692 9.27607H13.8192C13.602 9.27607 13.3936 9.36326 13.2399 9.51846C13.0863 9.67365 13 9.88415 13 10.1036V16.1724Z" fill="#10B1F0"/>
</svg>
